PathFileType	4	(X/Y/Z)	Walk5.trc
DataRate	CameraRate	NumFrames	NumMarkers	Units	OrigDataRate	OrigDataStartFrame	OrigNumFrames
200.000000	200.000000	8	57	mm	200.000000	464	539
Frame#	Times		RBHD		C7		RASI		RACR1		RUA1		RFA1		LFA1		RTH3		RTH2		RWRU		RCAR		RElbow		RBack		LTH2		RTH1		LElbowM		RTB3		RMT1		RTH4		RMT5		RLFC		RTB1		RTB4		LTH4		RTB2		LACR1		LElbow		LWRU		LTH3		CLAV		LTB1		LPSI		T10		RPSI		RWRR		LTH1		LBHD		LLFC		LTB3		LTB4		RToe		LCAL		RFHD		LTB2		LMMAL		LASI		LWRR		LLMAL		RElbowM		LMT1		LToe		RLMAL		RMMAL		LMT5		LUA1		LCAR		RCAL
			X1	Y1	Z1	X2	Y2	Z2	X3	Y3	Z3	X4	Y4	Z4	X5	Y5	Z5	X6	Y6	Z6	X7	Y7	Z7	X8	Y8	Z8	X9	Y9	Z9	X10	Y10	Z10	X11	Y11	Z11	X12	Y12	Z12	X13	Y13	Z13	X14	Y14	Z14	X15	Y15	Z15	X16	Y16	Z16	X17	Y17	Z17	X18	Y18	Z18	X19	Y19	Z19	X20	Y20	Z20	X21	Y21	Z21	X22	Y22	Z22	X23	Y23	Z23	X24	Y24	Z24	X25	Y25	Z25	X26	Y26	Z26	X27	Y27	Z27	X28	Y28	Z28	X29	Y29	Z29	X30	Y30	Z30	X31	Y31	Z31	X32	Y32	Z32	X33	Y33	Z33	X34	Y34	Z34	X35	Y35	Z35	X36	Y36	Z36	X37	Y37	Z37	X38	Y38	Z38	X39	Y39	Z39	X40	Y40	Z40	X41	Y41	Z41	X42	Y42	Z42	X43	Y43	Z43	X44	Y44	Z44	X45	Y45	Z45	X46	Y46	Z46	X47	Y47	Z47	X48	Y48	Z48	X49	Y49	Z49	X50	Y50	Z50	X51	Y51	Z51	X52	Y52	Z52	X53	Y53	Z53	X54	Y54	Z54	X55	Y55	Z55	X56	Y56	Z56	X57	Y57	Z57

464	2.32	857.29	1551	490.05	817.16	1418.9	398.01	918.01	930.21	499.44	869.36	1355.3	543.52	795.36	1166.8	604.45	741.65	903.09	641.94	937.53	999.81	62.98	979.56	554.55	521.02	1006.3	671.12	519.1	709.57	774.31	628.63	742.39	715.25	643.76	729.33	1048.3	614.61	737.26	1318.6	472.76	921.26	618.29	205.93	905.75	727.05	552.41	783.43	1100.8	153.84	1050.1	183.56	418.64	1146	38.349	381.27	942.94	639.57	540.24	1116.3	31.682	468.09	1016.9	460.84	508.6	1059.7	373.9	422.06	1057.4	280.96	422.19	851.98	623.07	171.69	1048	277	493.65	868.61	1424	223.05	815.3	1110.5	76.806	950.86	881.6	65.208	844.68	533.66	180.94	952.69	1338.9	383.09	778.79	318.92	245.22	739.13	937.61	293.85	725.19	1111	348.74	735.25	940.55	399.77	784.59	762.52	609.8	861.12	720.2	168.87	835.52	1558.8	351.67	808.6	423.97	191.35	623.71	216.5	249.42	700.04	268.81	248.04	1196.9	37.777	405.56	424.58	203.29	263.77	1034.1	1584.7	430.14	681.25	294.83	183.69	516.52	177.87	306.27	913	924.04	198.54	1010.4	916.07	112.46	486.09	192.35	219.11	719.65	1029.8	519.39	537.81	46.262	299.42	573.31	25.53	281.89	993.17	78.627	459.99	1017.5	95.044	374.12	528.55	57.07	217.49	843.86	1238.4	108.75	1034.7	869.66	64.405	943.77	30.883	418.79
465	2.325	863.71	1551.4	491.14	823.4	1419.7	399.3	924.36	931.21	500.32	876.69	1355.8	544.06	803.84	1167	605.45	751.19	903	643.05	941.89	1000.1	64.093	983.98	554.56	520.82	1011.8	671.14	518.85	719.66	774.05	629.91	752.83	715.08	645.2	738.39	1048.2	615.79	744.04	1319.6	474.52	931.13	618.9	206.33	911.6	727.47	552.4	789.15	1102.6	155.69	1051.2	183.08	418.12	1146.2	37.872	380.44	947.82	639.89	540.62	1116.5	31.691	467.77	1020.6	460.69	508.47	1062.1	373.34	421.79	1059.3	280.53	421.78	861.59	622.72	172.65	1050.2	276.46	493.29	874.5	1425.2	224.14	820.47	1111.8	78.216	954.49	881.9	66.029	855.44	533.09	182.07	958.9	1339.7	383.62	790.98	318.35	246.07	745.3	937.98	295.33	731.25	1111.8	350.09	741.29	941.59	400.81	794.36	762.92	610.35	868.91	719.84	170.19	841.91	1559.8	353.17	820.98	423.07	192.48	633.87	218.92	250.02	711.07	269.59	248.81	1197.4	37.385	404.91	434.31	209.22	263.06	1040.4	1585.4	431.43	692.93	295.84	184.4	526.01	182.76	306.45	918.82	924.67	199.23	1014.4	915.68	113.33	495.75	197.41	219.42	728.22	1029.8	521	546.01	49.843	298.39	580.59	28.799	279.68	993.57	78.451	459.51	1017.8	94.77	373.68	536.48	62.071	217.5	849.47	1239.4	109.85	1038.1	869.03	65.135	943.78	30.978	418.68
466	2.33	870.07	1552	492.23	829.48	1420.4	400.5	930.54	932.32	501.1	884.06	1356.4	544.67	812.41	1167.1	606.24	760.97	903.02	644.26	946.44	1000.5	65.167	988.16	554.77	520.69	1016.8	671.17	518.57	729.82	774.06	631.48	763.03	715.11	645.9	747.55	1048.1	616.93	750.83	1320.3	476.36	940.63	619.6	207.01	917.45	728.47	553.22	795.02	1104.4	157.34	1052.3	182.7	417.89	1146.3	37.492	380	953.05	640.5	541.02	1116.7	31.571	467.61	1024.1	460.52	508.4	1064.3	372.73	421.57	1060.9	279.91	421.61	870.73	622.23	174.07	1051.9	275.95	493.06	880.21	1426.4	225.02	825.54	1113	79.652	957.85	882.05	66.898	866.5	532.74	183.17	965.07	1340.5	383.93	802.82	318.09	247.42	751.28	938.65	296.56	737.13	1112.8	351.03	747.44	942.39	401.97	804.62	762.76	610.28	876.55	719.48	171.7	848.34	1561	354.01	833.52	422.42	193.64	644.01	221.62	251.04	722.26	270.84	250.12	1197.6	35.92	403.87	444.66	214.69	263.26	1046.8	1585.9	432.68	704.96	296.7	185.15	535.68	187.16	306.89	924.47	925.42	199.86	1018.2	915.34	114.15	506.09	202.1	219.66	736.76	1029.5	522.73	555.31	53.73	297.58	589.58	32.215	279.14	993.78	78.416	459.26	1018.1	94.518	373.33	545.18	66.795	217.05	855.12	1240.7	111.07	1041.4	868.39	66.057	943.83	31.043	418.62
467	2.335	876.44	1552.4	493.32	835.87	1421.4	401.68	936.93	933.34	501.7	891.14	1357	545.4	820.99	1167.3	607.04	770.86	903.06	645.39	950.67	1000.9	66.062	992.47	555.16	520.86	1021.8	671.31	518.41	740.27	773.91	632.93	774.11	715.16	647.18	756.63	1048	618.37	757.82	1321.2	478.02	950.24	620.65	207.54	923.41	729.75	555.2	800.05	1106	158.74	1053.1	182.22	418.02	1146.4	37.351	379.96	958.16	641.26	541.39	1116.8	31.515	467.55	1027.4	460.42	508.33	1066.7	372.28	421.54	1062.6	279.28	421.63	879.92	622.43	175.14	1053.6	275.39	493.15	885.82	1427.5	226.03	830.68	1114.1	80.902	961.29	882.32	67.726	877.32	532.57	184.06	971.28	1341.3	384.25	814.6	318.62	249.22	756.92	939.39	297.5	742.88	1113.5	352.04	753.39	943.57	402.83	814.73	763.2	611.11	884.39	719.44	172.89	854.55	1562	355.7	846.27	422.04	194.62	654.56	224.08	252.19	733.59	272.56	251.37	1197.9	34.935	403.05	455.2	219.55	264.05	1053.2	1586.7	433.87	717.19	297.77	185.95	545.75	191.15	307.43	929.87	926.2	200.64	1021.8	914.91	115.01	516.45	206.62	220.15	745.17	1029.4	524.47	564.58	57.283	296.97	599.76	35.705	278.85	993.91	77.698	458.1	1018.4	94.302	373.16	554.52	71.149	216.06	860.96	1241.8	112.06	1044.6	867.87	66.818	943.84	31.103	418.57
468	2.34	882.8	1553	494.54	841.9	1422.4	402.58	943.04	934.32	502.49	898.16	1357.8	546	829.59	1167.8	607.92	781.05	903.17	646.61	954.8	1001.3	66.896	996.47	555.58	521.26	1026.6	671.5	518.23	750.9	773.94	634.26	785.25	715.5	648.42	765.57	1048	619.84	764.25	1322.2	479.65	959.69	622.17	208.44	929.13	730.63	556.33	805.29	1107.4	160.09	1054	181.78	418.25	1146.5	37.339	380.01	963.06	642.03	542.03	1116.8	31.479	467.57	1030.4	460.33	508.37	1068.8	371.75	421.73	1064.3	278.79	421.79	889.51	622.59	175.75	1054.8	274.96	493.27	891.24	1428.8	226.78	835.64	1115.2	82.246	964.78	882.75	68.47	887.88	532.64	184.98	977.35	1342.2	384.51	826.67	319.82	250.84	762.57	940.11	298.53	748.76	1114.6	353.08	759.24	944.62	403.83	825.07	763.62	611.85	892.12	719.56	174.1	860.88	1563.2	356.88	858.89	422.19	195.47	665.67	226.84	253.5	744.73	274.49	252.93	1198.2	34.675	402.67	466.19	223.95	265.09	1059.6	1587.1	435	729.91	299.35	186.65	556.49	194.74	307.77	935.13	926.97	201.26	1025.5	914.57	115.9	527.16	210.97	220.82	753.23	1029.6	525.94	574.65	60.528	296.12	609.6	38.81	277.94	994.08	76.906	456.5	1018.6	94.148	373.03	564.22	75.221	215.03	866.77	1242.8	113	1047.7	867.26	67.62	943.82	31.149	418.55
469	2.345	888.99	1553.7	495.47	847.92	1423.6	403.47	949.3	935.5	503.05	905.2	1358.6	546.5	838.16	1168.2	608.88	791.21	903.37	647.8	958.97	1001.6	67.87	1000.4	556.16	521.75	1031.4	671.62	518.1	761.6	773.96	635.77	796.42	715.71	649.74	774.61	1048	621.25	770.7	1323.1	481.19	968.89	623.83	209.29	934.36	731.16	556.44	809.94	1108.9	161.44	1055.2	181.42	418.4	1146.5	37.339	380.03	967.48	642.77	542.76	1116.9	31.485	467.54	1033.1	460.17	508.62	1070.9	371.15	422.22	1065.9	278.38	422.09	898.67	622.75	176.93	1055.8	274.62	493.51	896.79	1429.9	227.47	840.49	1116.4	83.196	968.1	883.07	69.18	898.66	533.09	185.85	983.29	1343.2	384.75	838.72	321.04	252.45	768.27	940.99	299.51	754.49	1115.9	354.1	765.36	945.88	404.64	835.67	764.19	612.47	899.84	720	175.07	867.02	1564.5	357.69	871.34	422.84	196.43	676.9	229.59	254.56	756.56	276.41	254.12	1198.3	34.579	402.87	477.57	227.88	265.89	1065.7	1587.9	436.06	741.81	300.86	187.85	567.84	197.91	308.14	940.25	927.8	201.71	1029.3	914.4	116.49	538.68	214.85	221.42	761.65	1030.1	527.34	585.34	63.648	294.91	619.75	41.131	275.76	993.97	76.373	455.84	1018.7	94.132	372.97	574.99	79.513	214.08	871.96	1243.7	114.01	1050.8	866.8	68.291	943.75	31.185	418.6
470	2.35	895.12	1554.6	496.56	853.91	1424.8	404.33	955.44	936.51	503.59	912.06	1359.5	546.9	846.67	1168.6	609.99	801.39	903.67	648.99	962.85	1001.9	68.85	1004.2	556.57	522.43	1036	671.71	518.1	772.55	774.13	637.23	807.5	715.75	650.82	783.86	1048	622.55	777.18	1324.1	482.62	978.12	625.64	210.04	939.69	732.25	556.83	814.42	1110.6	162.55	1056.1	181.06	418.76	1146.5	37.305	379.96	972.03	643.67	543.41	1116.9	31.494	467.51	1035.9	460.14	508.93	1073	370.65	422.75	1067.3	278	422.58	907.83	623.77	177.58	1056.7	274.29	493.96	902.35	1431.1	228.17	845.39	1117.5	84.368	971.25	883.47	69.698	909.24	533.92	186.71	989.35	1344.3	385.09	851.21	322.54	253.51	774.11	942.05	300.49	760.32	1117	355.3	771.52	947.2	406	846.37	764.57	613.22	907.48	720.68	175.59	873.41	1565.6	359.22	883.88	424	197.3	688.84	232.11	255.16	768.88	278.42	254.95	1198.5	34.624	403.4	489.12	231.52	266.84	1072	1588.7	437.03	754.11	303.02	188.96	579.76	200.58	308.74	945.47	928.73	202.19	1032.9	914.19	117.16	550.38	218.49	222.1	769.89	1030.2	528.66	596.94	66.357	293.57	630.66	44.111	274.12	993.78	76.793	456.66	1018.8	94.229	372.99	586.32	83.648	213.53	877.04	1244.6	114.95	1053.9	866.32	69.2	943.7	31.174	418.69
471	2.355	901.3	1555.5	497.42	859.92	1425.9	405.12	961.54	937.65	504.28	918.89	1360.5	547.3	855.37	1169.3	610.72	811.63	904	650.37	966.77	1002.4	69.56	1007.7	556.82	523.31	1040.3	671.93	518.16	783.52	774.24	638.65	819.18	716.16	651.81	793.16	1048.3	624.11	783.75	1325.2	483.85	987.33	627.76	210.56	944.88	733.21	557.36	818.7	1112.2	163.15	1056.7	180.65	419.21	1146.4	37.296	379.91	976.69	644.38	544.14	1116.9	31.438	467.57	1038.3	460.03	509.26	1075.1	370.39	423.21	1068.8	277.69	423.03	916.77	624.7	178.04	1057.4	273.96	494.45	907.74	1432.3	228.43	850	1118.5	85.524	974.26	883.92	70.308	919.59	535	187.31	995.32	1345.5	385.12	863.38	323.86	254.46	779.75	943.1	301.36	765.95	1118.4	356.4	777.21	948.73	407.23	857.15	765.18	613.66	914.84	721.47	175.86	879.49	1567.1	359.53	896.79	425.42	197.98	701.03	234.42	255.87	781.33	280.22	255.79	1198.6	34.149	403.79	501.16	234.8	268.07	1078.2	1589.5	437.89	766.64	305.47	189.86	591.98	203.08	309	950.7	929.88	202.83	1036.2	913.89	117.94	562.4	222.12	222.85	777.82	1030.3	530.01	608.59	68.888	292.67	642.43	46.557	272.23	993.77	77.817	458.2	1019	94.371	373.04	597.84	86.958	212.66	882.26	1245.5	115.88	1056.8	866	69.975	943.7	31.191	418.76
